<?xml version="1.0" encoding="UTF-8" standalone="no"?>
<!-- Created with Inkscape (http://www.inkscape.org/) -->

<svg
   xmlns:osb="http://www.openswatchbook.org/uri/2009/osb"
   xmlns:dc="http://purl.org/dc/elements/1.1/"
   xmlns:cc="http://creativecommons.org/ns#"
   xmlns:rdf="http://www.w3.org/1999/02/22-rdf-syntax-ns#"
   xmlns:svg="http://www.w3.org/2000/svg"
   xmlns="http://www.w3.org/2000/svg"
   xmlns:xlink="http://www.w3.org/1999/xlink"
   xmlns:sodipodi="http://sodipodi.sourceforge.net/DTD/sodipodi-0.dtd"
   xmlns:inkscape="http://www.inkscape.org/namespaces/inkscape"
   width="210mm"
   height="297mm"
   viewBox="0 0 210 297"
   version="1.1"
   id="svg8"
   inkscape:version="0.92.4 (5da689c313, 2019-01-14)"
   sodipodi:docname="dibujo DE ANITA Y HENRI.svg">
  <defs
     id="defs2">
    <linearGradient
       id="linearGradient4609"
       osb:paint="solid">
      <stop
         style="stop-color:#000000;stop-opacity:1;"
         offset="0"
         id="stop4607" />
    </linearGradient>
    <linearGradient
       id="linearGradient4595"
       osb:paint="solid">
      <stop
         style="stop-color:#000000;stop-opacity:1;"
         offset="0"
         id="stop4593" />
    </linearGradient>
    <linearGradient
       inkscape:collect="always"
       xlink:href="#linearGradient4609"
       id="linearGradient4611"
       x1="27.34788"
       y1="262.74079"
       x2="99.864047"
       y2="262.74079"
       gradientUnits="userSpaceOnUse"
       gradientTransform="matrix(0.42716181,0,0,0.53518293,100.59325,-37.25161)" />
    <linearGradient
       inkscape:collect="always"
       xlink:href="#linearGradient4609"
       id="linearGradient4611-1"
       x1="27.347879"
       y1="262.74078"
       x2="99.864044"
       y2="262.74078"
       gradientUnits="userSpaceOnUse"
       gradientTransform="matrix(-0.44455062,0,0,0.50173937,111.68642,-28.121502)" />
  </defs>
  <sodipodi:namedview
     id="base"
     pagecolor="#ffffff"
     bordercolor="#666666"
     borderopacity="1.0"
     inkscape:pageopacity="0.0"
     inkscape:pageshadow="2"
     inkscape:zoom="0.36"
     inkscape:cx="-584.73576"
     inkscape:cy="477.03056"
     inkscape:document-units="mm"
     inkscape:current-layer="layer1"
     showgrid="false"
     showguides="true"
     inkscape:guide-bbox="true"
     inkscape:window-width="1366"
     inkscape:window-height="705"
     inkscape:window-x="-8"
     inkscape:window-y="-8"
     inkscape:window-maximized="1">
    <sodipodi:guide
       position="-58.704427,337.34375"
       orientation="0,1"
       id="guide4701"
       inkscape:locked="false" />
  </sodipodi:namedview>
  <metadata
     id="metadata5">
    <rdf:RDF>
      <cc:Work
         rdf:about="">
        <dc:format>image/svg+xml</dc:format>
        <dc:type
           rdf:resource="http://purl.org/dc/dcmitype/StillImage" />
        <dc:title></dc:title>
      </cc:Work>
    </rdf:RDF>
  </metadata>
  <g
     inkscape:label="Capa 1"
     inkscape:groupmode="layer"
     id="layer1">
    <path
       style="fill:#ff2900;fill-opacity:1;stroke-width:0.35368186"
       d="m 150.31052,127.79151 c 9.66256,39.42414 -5.85789,58.77127 -33.71163,34.20859 -10.81456,8.14005 -20.188964,5.63991 -24.006935,-0.0229 C 26.867446,201.27602 78.357119,102.2629 76.182946,85.431242 66.245946,71.19988 63.520659,67.198212 66.089848,43.087213 73.324686,-24.80939 74.701374,2.3901721 92.538484,64.784646 97.641089,55.352785 106.15613,47.900401 106.4344,46.252369 c 4.36446,-0.261583 11.3076,16.090604 15.44831,17.170098 -11.60963,10.320069 12.0706,-52.571408 22.60008,-58.6595667 5.40583,-3.1256564 4.40509,12.8776747 0.11781,30.3857747 -1.22533,5.003903 7.29633,25.506688 -12.62499,46.238192"
       id="path3713"
       inkscape:connector-curvature="0"
       sodipodi:nodetypes="ccccscccssc" />
    <path
       style="fill:#ff7f2a;stroke-width:0.31002209"
       d="m 143.85913,126.84579 c 8.21477,35.63022 -4.98017,53.11551 -28.66047,30.91659 -9.19415,7.35671 -17.163948,5.09716 -20.409839,-0.0207 C 38.912108,193.25865 82.686851,103.77388 80.838445,88.561995 54.065119,-10.19695 80.00792,6.8993129 94.743361,69.902282 99.081406,61.37808 106.32059,54.642862 106.55717,53.153421 c 3.71051,-0.236406 9.61333,14.542154 13.13362,15.517774 -16.53738,16.093108 49.42852,-128.332576 8.58063,16.235626"
       id="path3713-5"
       inkscape:connector-curvature="0"
       sodipodi:nodetypes="cccccccc" />
    <path
       style="fill:#ffa82a;fill-opacity:1;stroke-width:0.25817606"
       d="m 136.16741,125.97276 c 6.51355,31.16329 -3.9488,46.45646 -22.72506,27.04061 -7.2901,6.43438 -13.609407,4.45812 -16.183082,-0.0181 C 52.95431,184.05952 87.663569,105.79339 86.197966,92.488597 64.969226,6.1109757 85.539438,21.063894 97.223238,76.168237 c 3.439642,-7.45553 9.179622,-13.346362 9.367212,-14.649064 2.94209,-0.206771 7.62247,12.719008 10.41374,13.572318 -13.11261,14.075531 39.19218,-112.243643 6.80363,14.200181"
       id="path3713-5-4"
       inkscape:connector-curvature="0"
       sodipodi:nodetypes="cccccccc" />
    <path
       style="fill:#ffffff;fill-opacity:1;stroke:url(#linearGradient4611);stroke-width:1.4343946;stroke-miterlimit:4;stroke-dasharray:none"
       d="m 141.26733,100.22856 c -0.30624,4.25009 -4.10752,13.85477 -5.62231,17.03279 -3.8252,8.02516 -8.3683,8.72236 -14.70493,6.74637 -7.53974,-2.35117 -8.09405,-13.99198 -8.66487,-22.29248 1.72524,-3.840864 8.34797,-5.43195 15.06901,-9.702277 6.69835,-4.2559 12.74112,-11.673487 14.884,-9.287427 3.03608,8.341962 -1.72697,15.662804 -0.9609,17.503024"
       id="path4604"
       inkscape:connector-curvature="0"
       sodipodi:nodetypes="csscscc" />
    <path
       style="fill:#ffffff;fill-opacity:1;stroke:url(#linearGradient4611-1);stroke-width:1.41684055;stroke-miterlimit:4;stroke-dasharray:none"
       d="m 69.356557,100.76755 c 0.318702,3.98451 4.274723,12.98898 5.851175,15.96841 3.980911,7.52367 8.708964,8.17729 15.303535,6.32479 7.846671,-2.20424 8.423542,-13.11762 9.017611,-20.89943 C 97.733395,98.560473 90.841079,97.068816 83.846426,93.065341 76.875413,89.075385 70.586644,82.12132 68.35653,84.358291 c -3.159664,7.820659 1.797279,14.684033 1.000027,16.409259"
       id="path4604-0"
       inkscape:connector-curvature="0"
       sodipodi:nodetypes="csscscc" />
    <path
       style="fill:#241f1c;fill-opacity:1;stroke-width:2.27247691;stroke-miterlimit:4;stroke-dasharray:none"
       id="path4695"
       sodipodi:type="arc"
       sodipodi:cx="41.998108"
       sodipodi:cy="224.43001"
       sodipodi:rx="7.934236"
       sodipodi:ry="8.0809431"
       sodipodi:start="0"
       sodipodi:end="6.2218021"
       sodipodi:open="true"
       d="m 49.932344,224.43001 a 7.934236,8.0809431 0 0 1 -7.812484,8.07999 7.934236,8.0809431 0 0 1 -8.052252,-7.83201 7.934236,8.0809431 0 0 1 7.565357,-8.32036 7.934236,8.0809431 0 0 1 8.284436,7.57666" />
    <path
       style="fill:#ffffff;fill-opacity:1;stroke-width:2.27247691;stroke-miterlimit:4;stroke-dasharray:none"
       id="path4697"
       sodipodi:type="arc"
       sodipodi:cx="44.403763"
       sodipodi:cy="223.80406"
       sodipodi:rx="3.4496677"
       sodipodi:ry="4.2020864"
       sodipodi:start="0"
       sodipodi:end="6.2218021"
       sodipodi:open="true"
       d="m 47.853431,223.80406 a 3.4496677,4.2020864 0 0 1 -3.396732,4.20159 3.4496677,4.2020864 0 0 1 -3.500979,-4.07264 3.4496677,4.2020864 0 0 1 3.289285,-4.32658 3.4496677,4.2020864 0 0 1 3.601929,3.93986" />
    <path
       style="fill:#ffffff;fill-opacity:1;stroke-width:3;stroke-miterlimit:4;stroke-dasharray:none"
       id="path4733"
       sodipodi:type="arc"
       sodipodi:cx="108.77315"
       sodipodi:cy="231.58913"
       sodipodi:rx="10.289351"
       sodipodi:ry="11.024305"
       sodipodi:start="0"
       sodipodi:end="6.2218021"
       sodipodi:open="true"
       d="m 119.0625,231.58913 a 10.289351,11.024305 0 0 1 -10.13146,11.023 10.289351,11.024305 0 0 1 -10.442398,-10.6847 10.289351,11.024305 0 0 1 9.810978,-11.35093 10.289351,11.024305 0 0 1 10.7435,10.33634" />
    <path
       style="fill:#28220b;fill-opacity:1;stroke-width:3.24037027;stroke-miterlimit:4;stroke-dasharray:none"
       d="m 133.76158,237.83623 c 0,9.8369 -11.91123,22.26301 -20.34187,22.41396 -8.43063,0.15095 -10.26018,-12.02914 -10.51892,-21.86141 -0.0832,-5.6836 6.57769,-6.94211 13.47045,-10.07475 7.83424,-3.56053 16.18256,-8.46969 19.11151,-5.83577 2.78307,3.03495 -1.97295,10.57852 -1.72117,15.35797"
       id="path4735"
       inkscape:connector-curvature="0"
       sodipodi:nodetypes="cscscc" />
  </g>
</svg>
